
<svg width="512" height="512" viewBox="0 0 512 512" fill="none" xmlns="http://www.w3.org/2000/svg">
  <path d="M354.667 96H157.333C143.923 96 133.333 106.59 133.333 120V426.667C133.333 440.076 143.923 450.667 157.333 450.667H354.667C368.077 450.667 378.667 440.076 378.667 426.667V120C378.667 106.59 368.077 96 354.667 96Z" fill="#E6E6E6"/>
  <path d="M354.667 96H157.333C143.923 96 133.333 106.59 133.333 120V170.667H378.667V120C378.667 106.59 368.077 96 354.667 96Z" fill="#CCCCCC"/>
  <circle cx="256" cy="133.333" r="10.6667" fill="#333333"/>
  <rect x="176" y="213.333" width="160" height="32" rx="6" fill="#20C997"/>
  <rect x="176" y="213.333" width="160" height="32" rx="6" fill="#20C997"/>
  <path d="M176 219.333C176 216.019 178.686 213.333 182 213.333H330C333.314 213.333 336 216.019 336 219.333V239.333C336 242.647 333.314 245.333 330 245.333H182C178.686 245.333 176 242.647 176 239.333V219.333Z" fill="#1EAB80"/>
  <path d="M240 229.333C240 230.438 239.105 231.333 238 231.333H206C204.895 231.333 204 230.438 204 229.333C204 228.229 204.895 227.333 206 227.333H238C239.105 227.333 240 228.229 240 229.333Z" fill="white"/>
  <path d="M308 229.333C308 230.438 307.105 231.333 306 231.333H246C244.895 231.333 244 230.438 244 229.333C244 228.229 244.895 227.333 246 227.333H306C307.105 227.333 308 228.229 308 229.333Z" fill="white"/>
  <rect x="176" y="261.333" width="160" height="8" rx="4" fill="#CCCCCC"/>
  <rect x="176" y="277.333" width="160" height="8" rx="4" fill="#CCCCCC"/>
  <rect x="176" y="293.333" width="106.667" height="8" rx="4" fill="#CCCCCC"/>
  <rect x="176" y="320" width="53.3333" height="53.3333" fill="#CCCCCC"/>
  <rect x="240" y="320" width="53.3333" height="53.3333" fill="#CCCCCC"/>
  <rect x="304" y="320" width="53.3333" height="53.3333" fill="#CCCCCC"/>
  <path d="M224 432C224 451.882 207.882 468 188 468C168.118 468 152 451.882 152 432C152 412.118 168.118 396 188 396C207.882 396 224 412.118 224 432Z" fill="#3A506B"/>
  <path d="M224 400C224 380.118 207.882 364 188 364C168.118 364 152 380.118 152 400C152 419.882 168.118 436 188 436C207.882 436 224 419.882 224 400Z" fill="#FFD7BA"/>
  <path d="M179.627 411.06C171.901 414.993 168.063 420.352 170.158 424.014C172.254 427.676 179.795 427.782 187.521 423.849C195.247 419.917 199.085 414.557 196.99 410.895C194.894 407.233 187.353 407.127 179.627 411.06Z" fill="#3A506B"/>
  <path d="M166.667 396C166.667 389.373 172.039 384 178.667 384H188.667C195.294 384 200.667 389.373 200.667 396C200.667 402.627 193.294 403.333 186.667 403.333H178.667C172.039 403.333 166.667 402.627 166.667 396Z" fill="#FFD7BA"/>
  <path d="M198.667 382.667C198.667 380.458 200.458 378.667 202.667 378.667H208C210.209 378.667 212 380.458 212 382.667C212 384.876 210.209 386.667 208 386.667H202.667C200.458 386.667 198.667 384.876 198.667 382.667Z" fill="#FFD7BA"/>
  <path d="M456 224C456 279.228 411.228 352 356 352C300.772 352 256 279.228 256 224C256 168.772 300.772 96 356 96C411.228 96 456 168.772 456 224Z" fill="#A3E4D7"/>
  <path d="M356 96C356 96 321.6 128 302.4 166.4C283.2 204.8 276 224 276 224C276 224 301.6 213.467 320.267 213.467C338.933 213.467 356 224 356 224C356 224 373.067 213.467 391.733 213.467C410.4 213.467 436 224 436 224C436 224 428.8 204.8 409.6 166.4C390.4 128 356 96 356 96Z" fill="#1EAB80"/>
  <rect x="348" y="224" width="16" height="128" fill="#1EAB80"/>
  <path d="M92.4261 120L96 114.667L99.5739 120H92.4261Z" fill="white"/>
  <path d="M92.4261 120L96 125.333L99.5739 120H92.4261Z" fill="white"/>
  <path d="M89.3333 120V120C89.3333 118.159 90.8257 116.667 92.6667 116.667H99.3333C101.174 116.667 102.667 118.159 102.667 120V120C102.667 121.841 101.174 123.333 99.3333 123.333H92.6667C90.8257 123.333 89.3333 121.841 89.3333 120Z" fill="white"/>
  <path d="M78.4261 48L82 42.6667L85.5739 48H78.4261Z" fill="white"/>
  <path d="M78.4261 48L82 53.3333L85.5739 48H78.4261Z" fill="white"/>
  <path d="M75.3333 48V48C75.3333 46.1591 76.8257 44.6667 78.6667 44.6667H85.3333C87.1743 44.6667 88.6667 46.1591 88.6667 48V48C88.6667 49.8409 87.1743 51.3333 85.3333 51.3333H78.6667C76.8257 51.3333 75.3333 49.8409 75.3333 48Z" fill="white"/>
  <path d="M372.426 352L376 346.667L379.574 352H372.426Z" fill="white"/>
  <path d="M372.426 352L376 357.333L379.574 352H372.426Z" fill="white"/>
  <path d="M369.333 352V352C369.333 350.159 370.826 348.667 372.667 348.667H379.333C381.174 348.667 382.667 350.159 382.667 352V352C382.667 353.841 381.174 355.333 379.333 355.333H372.667C370.826 355.333 369.333 353.841 369.333 352Z" fill="white"/>
  <path d="M254.907 478.944C272.164 488.835 303.099 489.13 321.017 479.476C338.935 469.822 338.454 454.776 321.196 444.885C303.939 434.994 273.004 434.699 255.086 444.353C237.168 454.007 237.649 469.053 254.907 478.944Z" fill="#97CAAA"/>
  <path d="M183.947 487.98C183.947 487.98 187.71 485.65 189.021 480.483C189.206 479.356 189.405 476.213 189.405 476.213C189.405 476.213 193.091 477.045 193.338 476.956C193.586 476.868 193.618 476.302 193.569 476.066C193.42 475.311 193.147 475.104 193.147 475.104L195.729 474.096C195.729 474.096 196.405 473.796 196.405 473.329C196.405 472.863 195.926 472.668 195.465 472.591C195.003 472.513 190.876 471.738 190.876 471.738L189.005 471.739C189.005 471.739 186.019 470.378 184.652 468.358C183.284 466.339 182.545 463.768 182.487 462.842C182.433 461.989 182.329 455.479 182.329 455.479L183.953 455.095C183.953 455.095 184.565 454.912 184.656 454.469C184.745 454.035 184.142 453.802 183.816 453.654C183.49 453.506 182.369 453.11 182.369 453.11L182.298 450.62C182.298 450.62 182.297 450.103 181.927 449.949C181.557 449.796 181.173 450.079 180.993 450.219C180.813 450.359 180.366 450.617 180.366 450.617C180.366 450.617 179.86 450.906 179.747 451.015C179.634 451.124 179.548 452.247 179.548 452.247L178.302 452.761C178.302 452.761 177.731 452.966 177.731 453.414C177.731 453.861 178.318 454.123 178.318 454.123L179.48 454.506V458.139C179.48 458.139 179.479 460.327 178.882 461.509C178.284 462.691 177.813 463.202 177.813 463.202L176.099 464.057L175.614 466.439C175.471 467.164 175.412 469.529 176.296 471.311C177.217 473.177 179.002 474.947 179.002 474.947L178.531 477.312C178.531 477.312 177.968 481.16 179.812 484.667C181.698 488.263 183.947 487.98 183.947 487.98Z" fill="#97CAAA"/>
</svg>
